<mxfile host="app.diagrams.net" modified="2024-03-06T13:32:04.190Z" agent="Mozilla/5.0 (Windows NT 10.0; Win64; x64; rv:109.0) Gecko/20100101 Firefox/115.0" etag="QB5GfyiJMHAxcDfxEwRg" version="24.0.1" type="device">
  <diagram name="Seite-1" id="KFwzpnN8p88kkxjugVs2">
    <mxGraphModel dx="2876" dy="1077" grid="1" gridSize="10" guides="1" tooltips="1" connect="1" arrows="1" fold="1" page="1" pageScale="1" pageWidth="827" pageHeight="1169" math="0" shadow="0">
      <root>
        <mxCell id="0" />
        <mxCell id="1" parent="0" />
        <mxCell id="Ot9mSWyCwhVkRd0Nd6rj-37" value="" style="rounded=0;whiteSpace=wrap;html=1;fillColor=#dae8fc;strokeColor=#6c8ebf;" vertex="1" parent="1">
          <mxGeometry x="20" y="600" width="730" height="130" as="geometry" />
        </mxCell>
        <mxCell id="Ot9mSWyCwhVkRd0Nd6rj-36" value="" style="rounded=0;whiteSpace=wrap;html=1;fillColor=#dae8fc;strokeColor=#6c8ebf;" vertex="1" parent="1">
          <mxGeometry x="20" y="200" width="750" height="250" as="geometry" />
        </mxCell>
        <mxCell id="Ot9mSWyCwhVkRd0Nd6rj-18" value="Örtliche Ausbilder*innen" style="shape=umlLifeline;perimeter=lifelinePerimeter;whiteSpace=wrap;container=1;dropTarget=0;collapsible=0;recursiveResize=0;outlineConnect=0;portConstraint=eastwest;newEdgeStyle={&quot;edgeStyle&quot;:&quot;elbowEdgeStyle&quot;,&quot;elbow&quot;:&quot;vertical&quot;,&quot;curved&quot;:0,&quot;rounded&quot;:0};participant=umlActor;verticalAlign=bottom;labelPosition=center;verticalLabelPosition=top;align=center;size=65;fontSize=16;" vertex="1" parent="1">
          <mxGeometry x="20" y="60" width="35" height="808" as="geometry" />
        </mxCell>
        <mxCell id="Ot9mSWyCwhVkRd0Nd6rj-19" value="Örtliche Ausbildungsleitung" style="shape=umlLifeline;perimeter=lifelinePerimeter;whiteSpace=wrap;container=1;dropTarget=0;collapsible=0;recursiveResize=0;outlineConnect=0;portConstraint=eastwest;newEdgeStyle={&quot;edgeStyle&quot;:&quot;elbowEdgeStyle&quot;,&quot;elbow&quot;:&quot;vertical&quot;,&quot;curved&quot;:0,&quot;rounded&quot;:0};participant=umlActor;verticalAlign=bottom;labelPosition=center;verticalLabelPosition=top;align=center;size=65;fontSize=16;" vertex="1" parent="1">
          <mxGeometry x="498" y="60" width="35" height="808" as="geometry" />
        </mxCell>
        <mxCell id="Ot9mSWyCwhVkRd0Nd6rj-20" value="Personal- und Organisationsreferat" style="shape=umlLifeline;perimeter=lifelinePerimeter;whiteSpace=wrap;container=1;dropTarget=0;collapsible=0;recursiveResize=0;outlineConnect=0;portConstraint=eastwest;newEdgeStyle={&quot;edgeStyle&quot;:&quot;elbowEdgeStyle&quot;,&quot;elbow&quot;:&quot;vertical&quot;,&quot;curved&quot;:0,&quot;rounded&quot;:0};participant=umlActor;verticalAlign=bottom;labelPosition=center;verticalLabelPosition=top;align=center;size=65;fontSize=16;" vertex="1" parent="1">
          <mxGeometry x="801" y="60" width="35" height="808" as="geometry" />
        </mxCell>
        <mxCell id="Ot9mSWyCwhVkRd0Nd6rj-21" value="Nachwuchskräfte" style="shape=umlLifeline;perimeter=lifelinePerimeter;whiteSpace=wrap;container=1;dropTarget=0;collapsible=0;recursiveResize=0;outlineConnect=0;portConstraint=eastwest;newEdgeStyle={&quot;edgeStyle&quot;:&quot;elbowEdgeStyle&quot;,&quot;elbow&quot;:&quot;vertical&quot;,&quot;curved&quot;:0,&quot;rounded&quot;:0};participant=umlActor;verticalAlign=bottom;labelPosition=center;verticalLabelPosition=top;align=center;size=65;fontSize=16;" vertex="1" parent="1">
          <mxGeometry x="1334" y="60" width="35" height="808" as="geometry" />
        </mxCell>
        <mxCell id="Ot9mSWyCwhVkRd0Nd6rj-26" value="Notification, that internships can be reported" style="verticalAlign=bottom;endArrow=block;edgeStyle=elbowEdgeStyle;elbow=vertical;curved=0;rounded=0;fontSize=16;" edge="1" parent="1" source="Ot9mSWyCwhVkRd0Nd6rj-19" target="Ot9mSWyCwhVkRd0Nd6rj-18">
          <mxGeometry relative="1" as="geometry">
            <Array as="points">
              <mxPoint x="371" y="167" />
            </Array>
          </mxGeometry>
        </mxCell>
        <mxCell id="Ot9mSWyCwhVkRd0Nd6rj-27" value="Report internships" style="verticalAlign=bottom;endArrow=block;edgeStyle=elbowEdgeStyle;elbow=vertical;curved=0;rounded=0;fontSize=16;" edge="1" parent="1" source="Ot9mSWyCwhVkRd0Nd6rj-18" target="Ot9mSWyCwhVkRd0Nd6rj-19">
          <mxGeometry relative="1" as="geometry">
            <Array as="points">
              <mxPoint x="371" y="239" />
            </Array>
          </mxGeometry>
        </mxCell>
        <mxCell id="Ot9mSWyCwhVkRd0Nd6rj-28" value="Add junior staff information to the system" style="curved=1;rounded=0;fontSize=16;" edge="1" parent="1" source="Ot9mSWyCwhVkRd0Nd6rj-19" target="Ot9mSWyCwhVkRd0Nd6rj-19">
          <mxGeometry relative="1" as="geometry">
            <Array as="points">
              <mxPoint x="656" y="291" />
              <mxPoint x="656" y="321" />
            </Array>
          </mxGeometry>
        </mxCell>
        <mxCell id="Ot9mSWyCwhVkRd0Nd6rj-29" value="Assign each junior staff to a suitable position" style="curved=1;rounded=0;fontSize=16;" edge="1" parent="1" source="Ot9mSWyCwhVkRd0Nd6rj-19" target="Ot9mSWyCwhVkRd0Nd6rj-19">
          <mxGeometry x="-0.0046" relative="1" as="geometry">
            <Array as="points">
              <mxPoint x="656" y="373" />
              <mxPoint x="656" y="403" />
            </Array>
            <mxPoint as="offset" />
          </mxGeometry>
        </mxCell>
        <mxCell id="Ot9mSWyCwhVkRd0Nd6rj-30" value="Sends assignment table for checking" style="verticalAlign=bottom;endArrow=block;edgeStyle=elbowEdgeStyle;elbow=vertical;curved=0;rounded=0;fontSize=16;" edge="1" parent="1" source="Ot9mSWyCwhVkRd0Nd6rj-19" target="Ot9mSWyCwhVkRd0Nd6rj-20">
          <mxGeometry relative="1" as="geometry">
            <Array as="points">
              <mxPoint x="780" y="495" />
            </Array>
          </mxGeometry>
        </mxCell>
        <mxCell id="Ot9mSWyCwhVkRd0Nd6rj-31" value="Sends feedback for assignments" style="verticalAlign=bottom;endArrow=block;edgeStyle=elbowEdgeStyle;elbow=vertical;curved=0;rounded=0;fontSize=16;" edge="1" parent="1" source="Ot9mSWyCwhVkRd0Nd6rj-20" target="Ot9mSWyCwhVkRd0Nd6rj-19">
          <mxGeometry x="0.0009" relative="1" as="geometry">
            <Array as="points">
              <mxPoint x="780" y="547" />
            </Array>
            <mxPoint as="offset" />
          </mxGeometry>
        </mxCell>
        <mxCell id="Ot9mSWyCwhVkRd0Nd6rj-32" value="Adjusts assignment if necessary" style="curved=1;rounded=0;fontSize=16;" edge="1" parent="1" source="Ot9mSWyCwhVkRd0Nd6rj-19" target="Ot9mSWyCwhVkRd0Nd6rj-19">
          <mxGeometry x="0.0046" relative="1" as="geometry">
            <Array as="points">
              <mxPoint x="656" y="619" />
              <mxPoint x="656" y="649" />
            </Array>
            <mxPoint as="offset" />
          </mxGeometry>
        </mxCell>
        <mxCell id="Ot9mSWyCwhVkRd0Nd6rj-33" value="Sends information about the assigned junior staff by e-mail" style="verticalAlign=bottom;endArrow=block;edgeStyle=elbowEdgeStyle;elbow=vertical;curved=0;rounded=0;fontSize=16;" edge="1" parent="1" source="Ot9mSWyCwhVkRd0Nd6rj-19" target="Ot9mSWyCwhVkRd0Nd6rj-18">
          <mxGeometry relative="1" as="geometry">
            <Array as="points">
              <mxPoint x="371" y="701" />
            </Array>
          </mxGeometry>
        </mxCell>
        <mxCell id="Ot9mSWyCwhVkRd0Nd6rj-34" value="Sends information about the assigned internship position" style="verticalAlign=bottom;endArrow=block;edgeStyle=elbowEdgeStyle;elbow=vertical;curved=0;rounded=0;fontSize=16;" edge="1" parent="1" source="Ot9mSWyCwhVkRd0Nd6rj-20" target="Ot9mSWyCwhVkRd0Nd6rj-21">
          <mxGeometry relative="1" as="geometry">
            <Array as="points">
              <mxPoint x="1181" y="763" />
            </Array>
          </mxGeometry>
        </mxCell>
      </root>
    </mxGraphModel>
  </diagram>
</mxfile>
